<svg width="22" height="22" viewBox="0 0 22 22" fill="none" xmlns="http://www.w3.org/2000/svg">
<path fill-rule="evenodd" clip-rule="evenodd" d="M0.43264 0.332016C0.15808 0.596577 0 0.999006 0 1.52813V20.2598C0 20.7851 0.15808 21.1913 0.44096 21.4447L0.51584 21.5006L12.2304 11.0039V10.7691L0.50336 0.276123L0.43264 0.332016Z" fill="url(#paint0_linear_1724_2)"/>
<path fill-rule="evenodd" clip-rule="evenodd" d="M16.1284 14.5177L12.2222 11.015V10.7691L16.1326 7.26648L16.2158 7.31492L20.8417 9.66988C22.1646 10.3369 22.1646 11.4398 20.8417 12.118L16.2158 14.4692L16.1284 14.5177Z" fill="url(#paint1_linear_1724_2)"/>
<path fill-rule="evenodd" clip-rule="evenodd" d="M16.2157 14.4691L12.2221 10.892L0.432617 21.4558C0.865257 21.8694 1.5891 21.9178 2.4003 21.5116L16.2157 14.4691Z" fill="url(#paint2_linear_1724_2)"/>
<path fill-rule="evenodd" clip-rule="evenodd" d="M16.2157 7.31502L2.39615 0.283672C1.58911 -0.129937 0.861107 -0.0740437 0.428467 0.339565L12.2221 10.8922L16.2157 7.31502Z" fill="url(#paint3_linear_1724_2)"/>
<defs>
<linearGradient id="paint0_linear_1724_2" x1="11.1829" y1="1.32507" x2="-7.28441" y2="6.81856" gradientUnits="userSpaceOnUse">
<stop stop-color="#00A0FF"/>
<stop offset="0.007" stop-color="#00A1FF"/>
<stop offset="0.26" stop-color="#00BEFF"/>
<stop offset="0.512" stop-color="#00D2FF"/>
<stop offset="0.76" stop-color="#00DFFF"/>
<stop offset="1" stop-color="#00E3FF"/>
</linearGradient>
<linearGradient id="paint1_linear_1724_2" x1="22.5693" y1="10.8937" x2="-0.315678" y2="10.8937" gradientUnits="userSpaceOnUse">
<stop stop-color="#FFE000"/>
<stop offset="0.409" stop-color="#FFBD00"/>
<stop offset="0.775" stop-color="#FFA500"/>
<stop offset="1" stop-color="#FF9C00"/>
</linearGradient>
<linearGradient id="paint2_linear_1724_2" x1="14.0435" y1="12.8375" x2="1.29686" y2="36.7884" gradientUnits="userSpaceOnUse">
<stop stop-color="#FF3A44"/>
<stop offset="1" stop-color="#C31162"/>
</linearGradient>
<linearGradient id="paint3_linear_1724_2" x1="-2.53656" y1="-5.8969" x2="3.14945" y2="4.79889" gradientUnits="userSpaceOnUse">
<stop stop-color="#32A071"/>
<stop offset="0.069" stop-color="#2DA771"/>
<stop offset="0.476" stop-color="#15CF74"/>
<stop offset="0.801" stop-color="#06E775"/>
<stop offset="1" stop-color="#00F076"/>
</linearGradient>
</defs>
</svg>
