<svg width="31" height="31" viewBox="0 0 31 31" fill="none" xmlns="http://www.w3.org/2000/svg">
<path d="M8.35417 21.3158C8.21603 21.555 8.29788 21.8608 8.53698 21.9989C8.77609 22.1371 9.08191 22.0552 9.22005 21.8161L8.35417 21.3158ZM21.6059 21.8162C21.7441 22.0553 22.0499 22.1372 22.289 21.9991C22.5281 21.8609 22.61 21.5551 22.4718 21.316L21.6059 21.8162ZM29.5 15.5C29.5 23.232 23.232 29.5 15.5 29.5V30.5C23.7843 30.5 30.5 23.7843 30.5 15.5H29.5ZM15.5 29.5C7.76801 29.5 1.5 23.232 1.5 15.5H0.5C0.5 23.7843 7.21573 30.5 15.5 30.5V29.5ZM1.5 15.5C1.5 7.76801 7.76801 1.5 15.5 1.5V0.5C7.21573 0.5 0.5 7.21573 0.5 15.5H1.5ZM15.5 1.5C23.232 1.5 29.5 7.76801 29.5 15.5H30.5C30.5 7.21573 23.7843 0.5 15.5 0.5V1.5ZM19.2851 13.3712C19.2851 15.5092 17.5519 17.2424 15.4139 17.2424V18.2424C18.1042 18.2424 20.2851 16.0615 20.2851 13.3712H19.2851ZM15.4139 17.2424C13.2759 17.2424 11.5427 15.5092 11.5427 13.3712H10.5427C10.5427 16.0615 12.7236 18.2424 15.4139 18.2424V17.2424ZM11.5427 13.3712C11.5427 11.2332 13.2759 9.5 15.4139 9.5V8.5C12.7236 8.5 10.5427 10.6809 10.5427 13.3712H11.5427ZM15.4139 9.5C17.5519 9.5 19.2851 11.2332 19.2851 13.3712H20.2851C20.2851 10.6809 18.1042 8.5 15.4139 8.5V9.5ZM9.22005 21.8161C9.84793 20.7293 10.7507 19.8269 11.8378 19.1995L11.3379 18.3334C10.0989 19.0485 9.06983 20.0771 8.35417 21.3158L9.22005 21.8161ZM11.8378 19.1995C12.9249 18.5721 14.1579 18.2418 15.413 18.2418L15.413 17.2418C13.9824 17.2418 12.577 17.6183 11.3379 18.3334L11.8378 19.1995ZM15.413 18.2418C16.6681 18.2418 17.9012 18.5721 18.9882 19.1996L19.4881 18.3335C18.2491 17.6183 16.8436 17.2418 15.413 17.2418L15.413 18.2418ZM18.9882 19.1996C20.0753 19.827 20.9781 20.7294 21.6059 21.8162L22.4718 21.316C21.7562 20.0772 20.7272 19.0486 19.4881 18.3335L18.9882 19.1996Z" fill="#333333"/>
</svg>
